<svg width="324" height="68" viewBox="0 0 324 68" fill="none" xmlns="http://www.w3.org/2000/svg">
<g clip-path="url(#clip0_3571_627)">
<path d="M83.5211 1.84031H94.9316V50.4612H83.5211V1.84031ZM131.603 35.2298H107.631C107.631 40.2221 110.06 42.9238 114.762 42.9238C117.202 42.9238 118.962 42.0428 120.212 39.7523H131.16C129.33 47.8867 122.13 51.6065 114.821 51.6065C104.168 51.6065 96.2202 45.1361 96.2202 33.2133C96.2202 21.692 103.539 14.7517 113.995 14.7517C125.14 14.7517 131.583 22.1618 131.583 33.9475V35.2298H131.603ZM121.028 28.1623C120.778 26.6393 119.991 25.2544 118.809 24.2555C117.627 23.2566 116.126 22.7088 114.575 22.71C111.27 22.71 108.516 24.609 107.818 28.1623H121.028ZM169.611 47.0938C169.611 61.777 162.844 67.709 151.01 67.709C143.623 67.709 133.727 63.5977 132.724 54.5137H145.512C145.797 55.7275 146.623 56.5987 147.636 57.1469C148.63 57.6657 149.83 57.9398 150.882 57.9398C157.03 57.9398 158.22 53.6523 158.22 48.0336V46.4282C155.279 49.59 152.259 51.1268 148.02 51.1268C138.616 51.1268 132.163 43.4426 132.163 33.4972C132.163 23.3756 138.803 14.7615 148.62 14.7615C152.387 14.7615 155.84 16.1026 158.093 19.558H158.211V15.897H169.601V47.0938H169.611ZM143.938 32.949C143.938 37.3246 146.623 40.692 151.256 40.692C155.889 40.692 158.584 37.3246 158.584 32.949C158.584 28.7203 155.889 25.1278 151.256 25.1278C146.623 25.1278 143.938 28.7203 143.938 32.949ZM233.097 20.3509H233.225C235.861 16.1613 238.596 15.8089 243.032 15.6621C250.301 15.4565 253.754 19.0294 253.754 29.1118V50.471H242.353V35.4354C242.353 32.1366 242.176 25.8913 237.671 26.3416C233.058 26.8017 233.087 30.0614 233.087 34.3586V50.4612H221.706V15.897H233.087V20.3509H233.097ZM280.923 46.6338H280.814C278.788 50.0598 274.853 51.6162 271.096 51.6162C261.574 51.6162 254.875 43.0413 254.875 33.1644C254.875 23.2582 261.446 14.7713 270.968 14.7713C274.676 14.7713 278.552 16.2494 280.932 19.2741V1.84031H292.343V50.4612H280.932V46.6338H280.923ZM266.66 33.2231C266.66 37.5987 269.335 40.9661 273.978 40.9661C278.601 40.9661 281.287 37.5987 281.287 33.2231C281.287 28.9748 278.601 25.4019 273.978 25.4019C269.335 25.4019 266.66 28.9748 266.66 33.2231ZM294.31 5.64815C294.31 3.52398 295.992 1.84031 298.127 1.84031C298.631 1.83643 299.132 1.93212 299.599 2.12187C300.066 2.31161 300.491 2.59164 300.848 2.94574C301.206 3.29985 301.489 3.72101 301.683 4.18487C301.876 4.64873 301.974 5.14607 301.973 5.64815C301.973 7.77231 300.271 9.45598 298.127 9.45598C297.624 9.45859 297.126 9.3618 296.661 9.17124C296.196 8.98068 295.774 8.70014 295.419 8.3459C295.064 7.99166 294.783 7.57078 294.593 7.10767C294.402 6.64456 294.306 6.14846 294.31 5.64815ZM294.93 5.64815C294.93 7.43949 296.386 8.8295 298.127 8.8295C299.878 8.8295 301.343 7.4297 301.343 5.64815C301.343 3.84701 299.878 2.457 298.127 2.457C296.386 2.457 294.93 3.84701 294.93 5.64815ZM299.888 7.82125H299.179L298.078 5.85371H297.281V7.82125H296.661V3.53377H298.471C299.258 3.53377 299.957 3.7687 299.957 4.66927C299.957 5.50131 299.376 5.81455 298.806 5.84392L299.888 7.82125ZM297.281 4.16025V5.21744H297.95C298.54 5.21744 299.327 5.31533 299.327 4.73779C299.327 4.19941 298.874 4.16025 298.363 4.16025H297.281ZM219.788 25.2061V24.5503C219.788 22.387 217.358 16.0047 206.479 15.8774C201.669 15.8285 196.672 15.8774 196.672 15.8774V23.6889C196.672 23.6889 204.089 23.2582 206.922 24.7754C208.899 25.8522 208.505 27.3303 208.761 28.1232C207.099 26.2046 204.433 25.8326 200.243 25.8326C193.642 25.8326 189.088 31.7157 189.088 38.5972C189.088 45.4395 193.731 51.3813 200.331 51.3813C202.928 51.3813 206.902 51.3128 208.859 47.9259L208.977 50.6276H219.857V25.2355L219.788 25.2061ZM203.921 43.1685C200.685 43.1685 198.797 41.4555 198.797 38.4014C198.797 35.4256 200.685 33.3798 203.921 33.3798C207.168 33.3798 209.046 35.4256 209.046 38.4014C209.037 41.4555 207.168 43.1685 203.921 43.1685Z" fill="white" fill-opacity="1"/>
<path d="M182.743 21.5158H182.851C184.976 17.4436 188.153 16.729 192.875 16.0732H194.99V23.4637C192.816 23.6497 191.36 24.1098 189.019 25.6662C185.438 28.0351 182.743 31.3045 182.743 37.0212V50.4514H171.775V16.0732H182.743V21.5158ZM41.558 3.49462V16.6214H53.962V35.2788H53.9718V48.7481H67.1627V3.49462H41.558ZM34.8592 16.964H34.7609V3.49462H21.6585V48.7481H47.155V35.6116H34.8592V16.964Z" fill="white" fill-opacity="1"/>
<path d="M49.2108 35.5431H51.7979V52.1938H49.2108V35.5431ZM36.6003 1.52727e-05H39.1873V16.6703H36.6003V1.52727e-05Z" fill="white" fill-opacity="1"/>
</g>
<defs>
<clipPath id="clip0_3571_627">
<rect width="323.704" height="67.6471" fill="white" transform="scale(1.00091)"/>
</clipPath>
</defs>
</svg>
